<?xml version="1.0" encoding="UTF-8"?>
<svg width="41px" height="34px" viewBox="0 0 41 34" version="1.1" xmlns="http://www.w3.org/2000/svg" xmlns:xlink="http://www.w3.org/1999/xlink">
    <!-- Generator: Sketch 49.3 (51167) - http://www.bohemiancoding.com/sketch -->
    <title>“ copy@2x</title>
    <desc>Created with Sketch.</desc>
    <defs></defs>
    <g id="Frankfinn" stroke="none" stroke-width="1" fill="none" fill-rule="evenodd">
        <g id="Frankfinn_Courses" transform="translate(-167.000000, -2906.000000)" fill="#DA3C3C">
            <g id="Group-11" transform="translate(-2.000000, 2801.000000)">
                <g id="Group-8-Copy" transform="translate(163.000000, 69.000000)">
                    <path d="M23.5865204,52.6051789 L23.5865204,69.3832192 L6.5653201,69.3832192 L6.5653201,58.319439 C6.5653201,54.1046446 7.29479282,50.2749128 8.75376013,46.8301289 C10.2127274,43.3853449 12.6848294,39.9203495 16.1701402,36.4350387 L22.3707203,41.2982388 C20.4254306,43.405636 18.9259589,45.3508966 17.8722603,47.1340789 C16.8185617,48.9172611 16.1296152,50.7409429 15.8054002,52.6051789 L23.5865204,52.6051789 Z M46.9298807,52.6051789 L46.9298807,69.3832192 L29.9086805,69.3832192 L29.9086805,58.319439 C29.9086805,54.1046446 30.6381532,50.2749128 32.0971205,46.8301289 C33.5560878,43.3853449 36.0281898,39.9203495 39.5135006,36.4350387 L45.7140807,41.2982388 C43.7687909,43.405636 42.2693192,45.3508966 41.2156206,47.1340789 C40.161922,48.9172611 39.4729755,50.7409429 39.1487606,52.6051789 L46.9298807,52.6051789 Z" id="“-copy"></path>
                </g>
            </g>
        </g>
    </g>
</svg>